# File created by Blade
# Date/Time:  Fri Jan 16 19:41:12 2015
# Frame Rate: 120.000 fps
#------------------------------------------------------
:FULLY-SPECIFIED
:DEGREES
929
root 18.227001 35.428154 -20.503715 11.891683 0.898907 -1.500848
Spine -32.411039 -1.897124 4.742876
Head 34.230798 -6.620758 -5.962677
LeftShoulder -30.549072 -55.296478 58.058447
LeftArm 73.878585 -32.676768 -33.970396
LeftForeArm -26.291122 -0.000000 153.496690
LeftHand 5.819118 0.000000 8.180312
LeftHandThumb1 -26.253704 0.000000 33.147579
RightShoulder -1.047507 -36.536347 -1.082392
RightArm -5.014820 -65.067549 81.782609
RightForeArm -3.105467 -0.000000 130.864506
RightHand 6.559480 0.000000 48.061993
RightHandThumb1 -24.326973 -0.000000 -32.862282
LeftUpLeg 0.327596 5.536385 2.187167
LeftLeg -7.010557 -0.000000 0.000000
LeftFoot -23.191205 28.930227 -16.879052
LeftToeBase 23.465299 -0.000000 -0.000000
RightUpLeg -0.563029 -7.925407 0.008416
RightLeg -4.200119 -0.000000 0.000000
RightFoot -23.205082 -21.804727 21.104235
RightToeBase 22.526176 -0.000000 -0.000000
930
root 18.223051 35.427965 -20.492124 11.914177 0.829186 -1.513450
Spine -32.455013 -1.831876 4.744920
Head 34.009391 -6.641193 -5.904757
LeftShoulder -30.883110 -55.386418 58.414855
LeftArm 73.878263 -32.591105 -34.220908
LeftForeArm -25.911317 -0.000000 153.470292
LeftHand 5.589469 -0.000000 8.017053
LeftHandThumb1 -26.253704 0.000000 33.147579
RightShoulder -1.107671 -36.391026 -0.989681
RightArm -5.118158 -65.136577 81.790712
RightForeArm -3.011511 -0.000000 130.899659
RightHand 6.530050 -0.000000 48.007406
RightHandThumb1 -24.326973 -0.000000 -32.862282
LeftUpLeg 0.332611 5.573004 2.196060
LeftLeg -6.999957 -0.000000 0.000000
LeftFoot -23.225194 28.936713 -16.932905
LeftToeBase 23.438101 -0.000000 -0.000000
RightUpLeg -0.584780 -7.894523 0.017814
RightLeg -4.184707 -0.000000 0.000000
RightFoot -23.205857 -21.772833 21.112301
RightToeBase 22.527684 -0.000000 -0.000000
931
root 18.218812 35.427502 -20.480792 11.944676 0.757632 -1.526220
Spine -32.514015 -1.687218 4.717223
Head 33.811901 -6.675975 -5.862416
LeftShoulder -31.062224 -55.561305 58.610246
LeftArm 73.866195 -32.538133 -34.429968
LeftForeArm -25.455645 0.000000 153.459594
LeftHand 5.401403 -0.000000 7.969995
LeftHandThumb1 -26.253704 0.000000 33.147579
RightShoulder -1.246111 -36.294328 -0.877253
RightArm -5.156196 -65.196075 81.777084
RightForeArm -3.014772 -0.000000 130.929703
RightHand 6.531016 0.000000 47.996309
RightHandThumb1 -24.326973 -0.000000 -32.862282
LeftUpLeg 0.334072 5.595085 2.204387
LeftLeg -7.001410 -0.000000 0.000000
LeftFoot -23.254791 28.971432 -16.973188
LeftToeBase 23.496534 -0.000000 -0.000000
RightUpLeg -0.610316 -7.842183 0.027277
RightLeg -4.175912 -0.000000 0.000000
RightFoot -23.211191 -21.739940 21.124979
RightToeBase 22.492003 -0.000000 -0.000000
932
root 18.213461 35.427388 -20.468601 11.949900 0.679994 -1.537616
Spine -32.559459 -1.543825 4.677858
Head 33.659172 -6.693582 -5.791913
LeftShoulder -31.213798 -55.719237 58.780585
LeftArm 73.869017 -32.472830 -34.650104
LeftForeArm -24.836979 -0.000000 153.467275
LeftHand 5.172192 0.000000 8.003683
LeftHandThumb1 -26.253704 0.000000 33.147579
RightShoulder -1.351023 -36.213119 -0.775386
RightArm -5.190307 -65.241222 81.760325
RightForeArm -2.975980 -0.000000 130.951585
RightHand 6.536773 -0.000000 47.978201
RightHandThumb1 -24.326973 -0.000000 -32.862282
LeftUpLeg 0.360849 5.648911 2.215219
LeftLeg -6.995194 -0.000000 0.000000
LeftFoot -23.271513 28.955798 -17.020129
LeftToeBase 23.414286 -0.000000 -0.000000
RightUpLeg -0.614838 -7.787687 0.032677
RightLeg -4.159077 -0.000000 0.000000
RightFoot -23.218410 -21.726787 21.123418
RightToeBase 22.516256 -0.000000 -0.000000
933
root 18.207681 35.426490 -20.456347 11.961210 0.613287 -1.549528
Spine -32.619041 -1.416786 4.640120
Head 33.522960 -6.682704 -5.673390
LeftShoulder -31.326445 -55.847919 58.936093
LeftArm 73.867764 -32.432455 -34.874340
LeftForeArm -24.074868 -0.000000 153.515768
LeftHand 4.819878 -0.000000 7.959105
LeftHandThumb1 -26.253704 0.000000 33.147579
RightShoulder -1.460984 -36.211842 -0.680750
RightArm -4.975210 -65.320627 81.491755
RightForeArm -2.899187 -0.000000 130.989489
RightHand 6.519306 -0.000000 47.853957
RightHandThumb1 -24.326973 -0.000000 -32.862282
LeftUpLeg 0.382093 5.680519 2.228325
LeftLeg -6.996970 -0.000000 0.000000
LeftFoot -23.307471 28.964609 -17.052284
LeftToeBase 23.441307 -0.000000 -0.000000
RightUpLeg -0.619766 -7.733746 0.042830
RightLeg -4.153143 -0.000000 0.000000
RightFoot -23.224620 -21.714101 21.138968
RightToeBase 22.482261 -0.000000 -0.000000
934
root 18.202629 35.425032 -20.445227 11.974256 0.558866 -1.562639
Spine -32.670285 -1.338660 4.637737
Head 33.373991 -6.634294 -5.602261
LeftShoulder -31.400757 -55.929626 59.028410
LeftArm 73.917664 -32.487309 -35.088135
LeftForeArm -23.391017 -0.000000 153.521042
LeftHand 4.719210 -0.000000 8.092558
LeftHandThumb1 -26.253704 0.000000 33.147579
RightShoulder -1.513005 -36.167966 -0.635623
RightArm -4.940401 -65.395682 81.411038
RightForeArm -2.725562 -0.000000 131.003127
RightHand 6.481450 -0.000000 47.774888
RightHandThumb1 -24.326973 -0.000000 -32.862282
LeftUpLeg 0.394906 5.685942 2.245249
LeftLeg -6.989819 -0.000000 0.000000
LeftFoot -23.346451 28.990237 -17.080448
LeftToeBase 23.462705 -0.000000 -0.000000
RightUpLeg -0.622243 -7.684482 0.053145
RightLeg -4.148400 -0.000000 0.000000
RightFoot -23.234694 -21.703071 21.135819
RightToeBase 22.479764 -0.000000 -0.000000
935
root 18.198056 35.424107 -20.432779 11.989024 0.509112 -1.576648
Spine -32.721258 -1.254430 4.633802
Head 33.222217 -6.606775 -5.552148
LeftShoulder -31.574223 -56.030481 59.223737
LeftArm 73.945285 -32.467935 -35.331257
LeftForeArm -22.710821 0.000000 153.555125
LeftHand 4.667174 -0.000000 7.694285
LeftHandThumb1 -26.253704 0.000000 33.147579
RightShoulder -1.604685 -36.122723 -0.583769
RightArm -4.847333 -65.502843 81.280815
RightForeArm -2.606632 -0.000000 130.997273
RightHand 6.466784 -0.000000 47.725925
RightHandThumb1 -24.326973 -0.000000 -32.862282
LeftUpLeg 0.405444 5.700863 2.259968
LeftLeg -6.979760 -0.000000 0.000000
LeftFoot -23.374835 29.008088 -17.102807
LeftToeBase 23.411104 -0.000000 -0.000000
RightUpLeg -0.620257 -7.634858 0.063421
RightLeg -4.152079 -0.000000 0.000000
RightFoot -23.242420 -21.690982 21.151564
RightToeBase 22.508330 -0.000000 -0.000000
